/* XPM */
static char *a43b4b80069c4de1bc09b45126fdb3ac3QJuZKkTCwLiWNXK[] = {
/* columns rows colors chars-per-pixel */
"36 36 66 1 ",
"  c black",
". c #010000",
"X c #000100",
"o c #010101",
"O c #000002",
"+ c #010002",
"@ c #000103",
"# c #010103",
"$ c #000004",
"% c #010004",
"& c #111111",
"* c #101211",
"= c #4A2312",
"- c #4D2313",
"; c #492412",
": c #4A2512",
"> c #4B2512",
", c #4B2413",
"< c #4A2513",
"1 c #4B2415",
"2 c #5E2E17",
"3 c #86451F",
"4 c #904B22",
"5 c #9B5225",
"6 c #9C5424",
"7 c #B5622C",
"8 c #B4632C",
"9 c #B6632D",
"0 c #B5642C",
"q c #B5642D",
"w c #B6642C",
"e c #B4642F",
"r c #B5642F",
"t c #B6652E",
"y c #C2752F",
"u c #CD8231",
"i c #CE8330",
"p c #CF8232",
"a c #CE8332",
"s c #CC8432",
"d c #CF8433",
"f c #DFA949",
"g c #DFA84B",
"h c #DEA94B",
"j c #DFA84D",
"k c #DEA94D",
"l c #DFAA4C",
"z c #E0A84B",
"x c #E0A94C",
"c c #FDD671",
"v c #FFD670",
"b c #FED770",
"n c #FFD672",
"m c #FED772",
"M c #FED674",
"N c #FFD775",
"B c #FFD873",
"V c #F1F1F1",
"C c gray95",
"Z c #FEFEFC",
"A c #FEFFFD",
"S c #FFFFFD",
"D c #FEFEFE",
"F c #FFFEFF",
"G c #FEFFFF",
"H c white",
/* pixels */
"HHHHHHHHHHHHHHHHHHHHHHHHHHHHHHHHHHHH",
"HHHHHHHHHHHHHHHHHHHHHHHZHHHHHHHHHHHH",
"HHHHHHHHHHHHHHHHHHHHZHHHHHHZHHHHHHHH",
"HHHHHHHHHHHHHHHHHHHHHHHHHHHHHHHHHHHH",
"HHHHHHHHHHHHHHHHHHHHZHHHZHHZHHHHHHHH",
"HHHHHHHHHHHHHHHHHHHHHHHHHHHHHHHHHHHH",
"HHHHHHHHHHHOOHHHHHHHHHHOOHHHHHHHHHHH",
"HHHHHHHHHHOmmOHHHHHHHHOvmOHZHHHHHHHH",
"HHHHHHHHHHOmjfOHHHHHHOfjmOHHHHHHHHHH",
"HHHHHHHHHHOf9ftOO%OOOtjtfOHHHHHHHHHH",
"HHHHHHHHHHOxtiduuuduudd9jOHHHHHHHHHH",
"HHHHHHHHHH%tudu0uduutuuuuOHHHHHHHHHH",
"HHHHHHHHHHOtuutududt98uduOZHHHHHHHHH",
"HHHHHHHHHOtuudduuduutsduutOHHHHHHHHH",
"HHHHHHHHHO8ududzxudtt9duzfOHHHHHHHHH",
"HHHHHHHHHOtutuudjfdu9dufxuOHHHHHHHHH",
"HHHHHHHHHOtuuutOOOuduuuOOOOHHHHHHHHH",
"HHHHHHHHHO8duutVOVduuudVOVOHHHHHHHHH",
"HHHHHHHHHOtudutVOO8t8ttOOVOHHHHHHHHH",
"HHHHHHHHO0udddtVOOt9t9tO%VdOHHHHHHHH",
"HHHHHHHOtuutuBuufgzO%OfjzpBuOHHHHHHH",
"HHHHHHHOtududuBmmNjf%fjNmmiuOHHHHHHH",
"HHHHHHHO0uuddmffffOO%OOfggbdOHHHHHHH",
"HHHHHHHHOtduuummmmmuuuBmmmuOHHHHHHHH",
"HHHHHHHHHO,,,usfggfjgxgfg=O1HHHHHHHH",
"HZHHHHHHH1t8d,,,=11-==1,>u9t,HHHHHHH",
"HHHHHHH&*,tuffm,uxguud,mzgut#>,HHHHH",
"HHZHZH&31OujjBv,zxxxux,mBfjuot4,HHHH",
"HZHHHH=83tOfxmm1fggudu-mmffOyy4>HHHH",
"HHHHHH=8300O->=iuxzxuff,,=-0662*HHHH",
"HHHHHZHOOOOOOOOOOOOOOOOOOOOOOOoHHHHH",
"HHHHHHHHHHHHHHHHHHHHHHHHHHHHHHHHHHHH",
"HHHHHHHHHHHHHHHHHHHHHHHHHHHHHHHHHHHH",
"HHHHHHHHHHHHHHHHHHHHHHHHHHHHHHHHHHHH",
"HHHHHHHHHHHHHHHHHHHHHHHHHHHHHHHHHHHH",
"HHHHHHHHHHHHHHHHHHHHHHHHHHHHHHHHHHHH"
};
